<svg width="109" height="73" viewBox="0 0 109 73" fill="none" xmlns="http://www.w3.org/2000/svg">
<g filter="url(#filter0_f_7_4)">
<path d="M6.336 38.4547L33.408 27.5107V32.3747L11.776 40.8867L33.408 49.3987V54.2627L6.336 43.3187V38.4547ZM39.75 67.7667L58.886 13.7507H63.494L44.294 67.7667H39.75ZM96.908 43.3187L69.836 54.2627V49.3987L91.468 40.8867L69.836 32.3747V27.5107L96.908 38.4547V43.3187Z" fill="#BA68C8"/>
</g>
<mask id="path-2-outside-1_7_4" maskUnits="userSpaceOnUse" x="5" y="12" width="93" height="57" fill="black">
<rect fill="white" x="5" y="12" width="93" height="57"/>
<path d="M6.336 37.72L33.408 26.776V31.64L11.776 40.152L33.408 48.664V53.528L6.336 42.584V37.72ZM39.75 67.032L58.886 13.016H63.494L44.294 67.032H39.75ZM96.908 42.584L69.836 53.528V48.664L91.468 40.152L69.836 31.64V26.776L96.908 37.72V42.584Z"/>
</mask>
<path d="M6.336 37.72L33.408 26.776V31.64L11.776 40.152L33.408 48.664V53.528L6.336 42.584V37.72ZM39.75 67.032L58.886 13.016H63.494L44.294 67.032H39.75ZM96.908 42.584L69.836 53.528V48.664L91.468 40.152L69.836 31.64V26.776L96.908 37.72V42.584Z" fill="white"/>
<path d="M6.336 37.72L5.96121 36.7929L5.336 37.0456V37.72H6.336ZM33.408 26.776H34.408V25.2931L33.0332 25.8489L33.408 26.776ZM33.408 31.64L33.7742 32.5705L34.408 32.3211V31.64H33.408ZM11.776 40.152L11.4098 39.2214L9.04498 40.152L11.4098 41.0825L11.776 40.152ZM33.408 48.664H34.408V47.9829L33.7742 47.7334L33.408 48.664ZM33.408 53.528L33.0332 54.4551L34.408 55.0109V53.528H33.408ZM6.336 42.584H5.336V43.2584L5.96121 43.5111L6.336 42.584ZM6.71079 38.6471L33.7828 27.7031L33.0332 25.8489L5.96121 36.7929L6.71079 38.6471ZM32.408 26.776V31.64H34.408V26.776H32.408ZM33.0418 30.7094L11.4098 39.2214L12.1422 41.0825L33.7742 32.5705L33.0418 30.7094ZM11.4098 41.0825L33.0418 49.5946L33.7742 47.7334L12.1422 39.2214L11.4098 41.0825ZM32.408 48.664V53.528H34.408V48.664H32.408ZM33.7828 52.6009L6.71079 41.6569L5.96121 43.5111L33.0332 54.4551L33.7828 52.6009ZM7.336 42.584V37.72H5.336V42.584H7.336ZM39.75 67.032L38.8074 66.6981L38.3348 68.032H39.75V67.032ZM58.886 13.016V12.016H58.1794L57.9434 12.6821L58.886 13.016ZM63.494 13.016L64.4362 13.3509L64.9107 12.016H63.494V13.016ZM44.294 67.032V68.032H44.9998L45.2362 67.3669L44.294 67.032ZM40.6926 67.3659L59.8286 13.3499L57.9434 12.6821L38.8074 66.6981L40.6926 67.3659ZM58.886 14.016H63.494V12.016H58.886V14.016ZM62.5518 12.6811L43.3518 66.6971L45.2362 67.3669L64.4362 13.3509L62.5518 12.6811ZM44.294 66.032H39.75V68.032H44.294V66.032ZM96.908 42.584L97.2828 43.5111L97.908 43.2584V42.584H96.908ZM69.836 53.528H68.836V55.0109L70.2108 54.4551L69.836 53.528ZM69.836 48.664L69.4698 47.7334L68.836 47.9829V48.664H69.836ZM91.468 40.152L91.8342 41.0825L94.199 40.152L91.8342 39.2214L91.468 40.152ZM69.836 31.64H68.836V32.3211L69.4698 32.5705L69.836 31.64ZM69.836 26.776L70.2108 25.8489L68.836 25.2931V26.776H69.836ZM96.908 37.72H97.908V37.0456L97.2828 36.7929L96.908 37.72ZM96.5332 41.6569L69.4612 52.6009L70.2108 54.4551L97.2828 43.5111L96.5332 41.6569ZM70.836 53.528V48.664H68.836V53.528H70.836ZM70.2022 49.5946L91.8342 41.0825L91.1018 39.2214L69.4698 47.7334L70.2022 49.5946ZM91.8342 39.2214L70.2022 30.7094L69.4698 32.5705L91.1018 41.0825L91.8342 39.2214ZM70.836 31.64V26.776H68.836V31.64H70.836ZM69.4612 27.7031L96.5332 38.6471L97.2828 36.7929L70.2108 25.8489L69.4612 27.7031ZM95.908 37.72V42.584H97.908V37.72H95.908Z" fill="#8B5CF6" mask="url(#path-2-outside-1_7_4)"/>
<defs>
<filter id="filter0_f_7_4" x="1.336" y="8.75067" width="100.572" height="64.016" filterUnits="userSpaceOnUse" color-interpolation-filters="sRGB">
<feFlood flood-opacity="0" result="BackgroundImageFix"/>
<feBlend mode="normal" in="SourceGraphic" in2="BackgroundImageFix" result="shape"/>
<feGaussianBlur stdDeviation="2.5" result="effect1_foregroundBlur_7_4"/>
</filter>
</defs>
</svg>
